<?xml version="1.0" standalone="no"?>
<!DOCTYPE svg PUBLIC "-//W3C//DTD SVG 1.1//EN" "http://www.w3.org/Graphics/SVG/1.1/DTD/svg11.dtd" >
<!--
2018-11-26: Created with FontForge (http://fontforge.org)
-->
<svg xmlns="http://www.w3.org/2000/svg" xmlns:xlink="http://www.w3.org/1999/xlink" version="1.1">
<metadata>
Created by FontForge 20170730 at Tue Dec  4 21:38:00 2018
 By Jon Tore
Copyright (c) 2018, Jon Tore Hafstad
</metadata>
<defs>
<font id="aasheim" horiz-adv-x="557" vert-adv-y="1000" >
  <font-face 
    font-family="aasheim"
    font-weight="400"
    font-stretch="normal"
    units-per-em="1000"
    panose-1="2 0 5 3 0 0 0 0 0 0"
    ascent="800"
    descent="-200"
    x-height="647"
    cap-height="849"
    bbox="-7.90039 -519.645 1005.8 1198.98"
    underline-thickness="50"
    underline-position="-100"
    unicode-range="U+002B-007A"
  />
    <missing-glyph />
    <glyph glyph-name="e" unicode="e" horiz-adv-x="604" vert-adv-y="0" 
d="M43.0508 424.6c0 113.601 39.8838 190.906 132.001 212c41.1436 9.42188 142.236 27.2002 193.6 27.2002c79.4678 0 147.434 -18.3174 171.2 -65.5996c24.7998 -49.3389 17.7812 -66.0898 17.7812 -144c0 -10.3887 0.185547 -49.3184 0.185547 -60.7998
c-139.2 0 -443.567 -4.80078 -443.567 -4.80078c0 -61.5996 -3.2002 -153.399 -3.2002 -231c0 -92.8594 96.7285 -104 193.601 -104c40.8311 0 100.786 6.03809 142.399 12.8008c51.2002 8.32031 53.9199 98.4316 53.9199 130.304
c0 7.96777 -0.319336 12.8955 -0.319336 12.8955c-0.75293 -0.1875 -1.72559 -0.287109 -1.72559 -0.329102c0 -0.0185547 0.170898 -0.0263672 0.598633 -0.0263672c2.9043 0 7.25977 1.15625 61.127 1.15625c0 -20.3301 0.297852 -40.0615 0.297852 -57.7881
c0 -32.499 -1.00391 -58.2588 -6.69824 -68.6123c-20 -35.2002 -52 -80 -267.2 -80c-96 0 -243.199 35.2002 -243.199 134.4c0 145.6 -0.800781 286.199 -0.800781 286.199zM461.451 446.2c0 0.799805 21.6582 3.2002 21.6582 4c0 108.8 20.7422 164.958 -88.8584 164.958
c-75.5869 0 -180.232 -16.8652 -238.399 -65.3604c-31.1006 -25.9287 -43.2002 -69.5225 -43.2002 -105.198c85.5996 0 348.8 1.60059 348.8 1.60059z" />
    <glyph glyph-name="u" unicode="u" horiz-adv-x="575" vert-adv-y="0" 
d="M107.1 646.2h-73.5996s-1.59961 -334.2 -1.59961 -564.601c0 -61.5996 52 -81.5996 120.801 -81.5996c131.199 0 320 73.5996 320 73.5996s-0.800781 -48 -0.800781 -67.1992v-6.40039h68.8008c0 272.8 2.39844 495 2.39844 652.6h-68.7988
s-2.40039 -300.6 -2.40039 -476.6c0 -88.7998 -140 -139.2 -246.4 -139.2c-65.5996 0 -119.199 -5.59961 -119.199 49.6006c0 216 0.798828 559.8 0.798828 559.8z" />
    <glyph glyph-name="n" unicode="n" horiz-adv-x="607" vert-adv-y="0" 
d="M485.5 -0.799805h70.3994c6.40039 11.2002 3.2002 338.399 3.2002 569.6c0 61.6006 -52 86.4004 -120.8 86.4004c-131.2 0 -320 -73.6006 -320 -73.6006s0.799805 48 0.799805 67.2002v6.40039h-68.7998c0 -272.8 -3.2002 -496 -3.2002 -653.601h69.6006
s2.39941 301.601 2.39941 477.601c0 88.7998 140 139.2 246.4 139.2c65.5996 0 119.2 5.59961 119.2 -49.6006c0 -216 0.799805 -577.6 0.799805 -569.6z" />
    <glyph glyph-name="o" unicode="o" horiz-adv-x="572" vert-adv-y="0" 
d="M282.4 52c85.5996 0 184.8 16 184.8 62.4004c0 66.3994 -3.2002 293.6 -3.2002 403.199c0 59.2002 -96.7998 91.2002 -180 91.2002c-83.1992 0 -182.399 -32 -182.399 -91.2002c0 -109.6 1.59961 -336.8 1.59961 -403.199c0 -46.4004 93.6006 -62.4004 179.2 -62.4004z
M284 -0.799805c-125.6 0 -242.399 32 -242.399 106.399c0 60 -1.60059 309.601 -1.60059 420.801c0 120.8 133.601 132.8 244 132.8c110.4 0 248 -12 248 -132.8c0 -111.2 -1.59961 -360.801 -1.59961 -420.801c0 -74.3994 -120 -106.399 -246.4 -106.399z" />
    <glyph glyph-name="g" unicode="g" horiz-adv-x="532" vert-adv-y="0" 
d="M306.756 -514.4c96 0 164.8 5.60059 164.8 104.801c0 347.199 4.7998 943.199 4.7998 943.199s0.799805 81.6006 0.799805 130.4h-72c0 -7.2002 0 -32 0 -30.4004c-55.2002 24 -86.3994 34.4004 -148.8 34.4004c-116 0 -200.8 -19.2002 -200.8 -132.8v-432
c0 -96 200.8 -97.6006 200.8 -97.6006c101.6 0 148.8 22.4004 148.8 22.4004v-405.6c0 -63.2002 0 -72.8008 -28.7998 -79.2002c-95.2002 -20 -320.8 -24 -320.8 -24s-1.60059 -16.7998 0 -27.2002zM405.155 533.6v-404c0 -46.3994 -63.2002 -72.7998 -148.8 -72.7998
c-96.7998 0 -125.6 14.4004 -125.6 51.2002v427.2c0 40.7998 28 75.2002 125.6 75.2002c83.2002 0 148.8 -17.6006 148.8 -76.8008z" />
    <glyph glyph-name="h" unicode="h" horiz-adv-x="593" vert-adv-y="0" 
d="M478.5 -1.59961h70.4004c6.39941 11.1992 3.2002 318.399 3.2002 549.6c0 61.5996 -52 86.4004 -120.801 86.4004c-131.199 0 -328.8 -77.6006 -328.8 -77.6006v577.601h-62.3994v-1133.6h69.5996s2.40039 281.601 2.40039 457.601
c0 88.7998 140 139.199 246.399 139.199c65.6006 0 119.2 5.60059 119.2 -49.5996c0 -216 0.799805 -557.6 0.799805 -549.6z" />
    <glyph glyph-name="m" unicode="m" horiz-adv-x="1050" vert-adv-y="0" 
d="M532.201 602.4c0 0 220.799 53.5996 351.999 53.5996c68.7998 0 120.8 -24.7998 120.8 -86.4004c0 -231.199 3.2002 -558.399 -3.2002 -569.6h-70.3994c0 -8 -0.800781 353.6 -0.800781 569.6c0 55.2002 -53.5996 49.6006 -119.199 49.6006
c-106.4 0 -252 -12 -255.118 -120c-6.30859 -218.526 2.48535 -489.107 -3.28223 -499.2h-70.4004c0 -8 -0.799805 353.6 -0.799805 569.6c0 55.2002 -53.5996 49.6006 -119.2 49.6006c-106.399 0 -246.399 -50.4004 -246.399 -139.2
c0 -176 -2.40039 -477.6 -2.40039 -477.6h-69.5996c0 157.6 3.2002 380.8 3.2002 653.6h68.7998v-6.40039c0 -19.1992 -0.799805 -67.1992 -0.799805 -67.1992s188.8 73.5996 320 73.5996c54.4648 0 80.8555 -16.5625 96.8008 -53.5996z" />
    <glyph glyph-name="d" unicode="d" horiz-adv-x="623" vert-adv-y="0" 
d="M570.3 115.2v431.2v601.6h-84v-495.2s-108.8 21.6006 -168 21.6006c-110.4 0 -265.6 -5.60059 -265.6 -126.4c0 -111.2 1.59961 -367.2 1.59961 -427.2c0 -74.3994 121.6 -106.399 247.2 -106.399c66.3994 0 186.399 15.1992 186.399 15.1992v-17.5996h82.4004v103.2z
M487.1 120.8c0 -36.7998 -91.2002 -57.5996 -188 -57.5996c-85.5996 0 -174.399 34.3994 -174.399 80.7998c0 66.4004 -2.40039 294.4 -2.40039 404c0 59.2002 111.2 68.7998 194.4 68.7998c97.5996 0 170.399 -28 170.399 -68.7998v-427.2z" />
    <glyph glyph-name="k" unicode="k" horiz-adv-x="601" vert-adv-y="0" 
d="M320.354 663.2l-206.453 -173.2v648.8h-68.8008c0 -272.8 2 -979.2 2 -1136.8h70.4004s-0.400391 254.4 -0.400391 426.4c123.2 -179.2 374 -431.2 368.4 -426.4h70.4004c-4.80078 12 -378 456 -378 456l193.653 154z" />
    <glyph glyph-name="i" unicode="i" horiz-adv-x="202" vert-adv-y="0" 
d="M57 805c0 24 20 44 44 44s44 -20 44 -44s-20 -44 -44 -44s-44 20 -44 44zM137.234 0h-79.2002v657h79.2002v-657z" />
    <glyph glyph-name="j" unicode="j" horiz-adv-x="298" vert-adv-y="0" 
d="M28.957 -518.975c12.9805 -0.44043 26.9023 -0.669922 41.834 -0.669922c96 0 187.852 12.4443 187.852 111.645v546.4v509.6s0 -32.8008 0 16h-73.0488l0.798828 -990.4c0.0262471 -32.5416 0.882812 -119.469 -16.6348 -140.8
c-32.5059 -39.5791 -140.801 -24.457 -140.801 -24.457v-27.3174zM181.043 829.6c0 24 20 44 44 44s44 -20 44 -44s-20 -44 -44 -44s-44 20 -44 44zM28.957 -518.975z" />
    <glyph glyph-name="a" unicode="a" horiz-adv-x="609" vert-adv-y="0" 
d="M490.9 644.6c0 20 -0.800781 40 -0.800781 60h68.8008v-704.6h-69.5996v28.7998s-92.8008 -28.7998 -194.4 -28.7998c0 0 -244.801 3.2002 -244.801 99.2002v436.6c0 108 131.201 120 245.6 120c64 0 195.201 -11.2002 195.201 -11.2002zM124.5 535.8
c0 -124 -0.800781 -396.6 -0.800781 -436.6c0 -36.7998 74.4004 -49.6006 171.201 -49.6006c85.5996 0 196.799 3.2002 196.799 49.6006c0 66.3994 -1.59961 327 -1.59961 436.6c0 59.2002 -111.199 76 -194.4 76c-94.3984 0 -166.398 -37.5996 -171.199 -76z" />
    <glyph glyph-name="p" unicode="p" horiz-adv-x="619" vert-adv-y="0" 
d="M50.6992 559.2v-431.2v-601.6h84v495.199s108.801 -21.5996 168 -21.5996c110.4 0 265.602 5.59961 265.602 126.4c0 111.199 -1.60156 367.199 -1.60156 427.199c0 74.4004 -121.6 106.4 -247.199 106.4c-66.4004 0 -186.4 -15.2002 -186.4 -15.2002v17.6006h-82.4004
v-103.2zM133.9 553.6c0 36.8008 91.1992 57.6006 188 57.6006c85.5996 0 174.4 -34.4004 174.4 -80.7998c0 -66.4004 2.39844 -294.4 2.39844 -404c0 -59.2002 -111.199 -68.8008 -194.398 -68.8008c-97.6016 0 -170.4 28 -170.4 68.8008v427.199z" />
    <glyph glyph-name="r" unicode="r" horiz-adv-x="569" vert-adv-y="0" 
d="M540.5 556.8c0 61.6006 -52 86.4004 -120.8 86.4004c-131.2 0 -320 -73.6006 -320 -73.6006s0.799805 48 0.799805 67.2002v6.40039h-68.7998c0 -272.8 -3.2002 -476 -3.2002 -633.601h69.5996s2.40039 281.601 2.40039 457.601c0 88.7998 204.8 137.6 311.2 137.6
c65.5996 0 54.3994 -48 54.3994 -48h74.4004z" />
    <glyph glyph-name="b" unicode="b" horiz-adv-x="635" vert-adv-y="0" 
d="M58.6992 103.2v431.2v601.6h84v-495.2s108.801 21.6006 168 21.6006c110.4 0 265.602 -5.60059 265.602 -126.4c0 -111.2 -1.60156 -367.2 -1.60156 -427.2c0 -74.3994 -121.6 -106.399 -247.199 -106.399c-66.4004 0 -186.4 15.1992 -186.4 15.1992v-17.5996h-82.4004
v103.2zM141.9 108.8c0 -36.7998 91.1992 -57.5996 188 -57.5996c85.5996 0 174.4 34.3994 174.4 80.7998c0 66.4004 2.39844 294.4 2.39844 404c0 59.2002 -111.199 68.7998 -194.398 68.7998c-97.6016 0 -170.4 -28 -170.4 -68.7998v-427.2z" />
    <glyph glyph-name="q" unicode="q" horiz-adv-x="616" vert-adv-y="0" 
d="M566.8 555.2l4.99995e-10 -439.2v-601.6h-84v495.199s-108.8 -21.5996 -168 -21.5996c-110.399 0 -265.6 5.59961 -265.6 126.4c0 111.199 1.59961 375.199 1.59961 435.199c0 74.4004 121.601 106.4 247.2 106.4c66.4004 0 186.4 -15.2002 186.4 -15.2002v17.6006
h82.3994v-103.2zM483.601 549.6c0 36.8008 -91.2002 57.6006 -188 57.6006c-85.6006 0 -174.4 -34.4004 -174.4 -80.7998c0 -66.4004 -2.40039 -302.4 -2.40039 -412c0 -59.2002 111.2 -68.8008 194.4 -68.8008c97.5996 0 170.4 28 170.4 68.8008z" />
    <glyph glyph-name="c" unicode="c" horiz-adv-x="577" vert-adv-y="0" 
d="M546.08 534.4v-0.800781c0 120.801 -155.201 127.2 -265.6 127.2c-116 0 -249.602 -12.7998 -249.602 -126.399v-432c0 -96 153.277 -103.255 284.475 -102.4c152.783 0.995117 230.768 71.3965 230.768 147.2c0 1.3252 -46.3887 -0.245117 -70.4414 0.799805
c0 -46.4004 -90.4004 -98.4004 -176 -98.4004c-96.8008 0 -189.6 20.8008 -189.6 57.6006c0 53.5996 0.798828 324 0.798828 427.2c0 40.7998 73.6016 68.7998 171.201 68.7998c83.1992 0 194.4 -9.60059 194.4 -68.7998h69.5996z" />
    <glyph glyph-name="l" unicode="l" horiz-adv-x="236" vert-adv-y="0" 
d="M158.801 0l-74.4004 -0.799805l-7.20117 1130.4h80z" />
    <glyph glyph-name="f" unicode="f" horiz-adv-x="369" vert-adv-y="0" 
d="M107.796 783.2c0 77.5703 1.04395 249.93 4 315.2c2.0791 45.9248 52.5322 92.4619 137.279 99.5244c38.4004 3.2002 94.7207 -1.9248 94.7207 -1.9248s-3.08496 -31.7168 0 -27.2002c0 0 -2.16309 -1.79395 -71.2002 -2.39941
c-91.2002 -0.800781 -84 -42.4004 -84 -123.2c0 -110.4 3.00879 -240.8 2.40039 -260.8h76.7998l-0.191406 -54.4004h-81.6006l1.18359 -723.2h-78.4004l-1.18262 723.2h-82.4004l0.191406 54.4004z" />
    <glyph glyph-name="t" unicode="t" horiz-adv-x="433" vert-adv-y="0" 
d="M378.531 28v-28c-120.634 -7.0918 -229.56 15.3965 -231.2 104c-3.2002 172.8 -2.61523 454.246 -2.61523 624h-90.2471l0.000976562 53.5996h88v125.601h72.8008v-125.601h81.5996l-0.00195313 -53.5996h-81.5996l-3.9375 -641.6
c10.0205 -65.4922 140.275 -68.8965 167.2 -58.4004z" />
    <glyph glyph-name="s" unicode="s" horiz-adv-x="563" vert-adv-y="0" 
d="M524.428 191.2v-63.2002c0 -89.5996 -92.7998 -116 -230.399 -116c-72 0 -118.4 3.2002 -293.601 81.5996l12 24l13.6006 33.6006c155.2 -68.7998 191.2 -72 268 -72c96.7998 0 145.6 5.59961 157.6 48.7998c0 0 2.40039 43.2002 2.40039 55.2002
c0 140.8 -120.558 178.224 -284 241.6c-39.2002 15.2002 -77.6768 17.6006 -77.6768 52.7998c0 32 -4 101.601 36.7998 124.801c119.2 68 218.477 89.5996 376.877 -25.6006c0 0 -30.4004 -44.7998 -36.7998 -33.5996c-320.801 200.8 -328.801 -36 -278.4 -56
c260.8 -101.601 333.6 -136 333.6 -296z" />
    <glyph glyph-name="x" unicode="x" horiz-adv-x="533" vert-adv-y="0" 
d="M116.9 2.40039h-74.4004c32.8008 64.7998 128 240 188 381.6l-124.8 265.8h76.7998l88 -187.399l92.8008 187.399h76.7998c-63.2002 -118.399 -61.6006 -128.2 -128 -262.6l178.399 -384.8h-71.1992l-147.2 316s-155.2 -313.601 -155.2 -316z" />
    <glyph glyph-name="v" unicode="v" horiz-adv-x="635" vert-adv-y="0" 
d="M303.5 0l-262.4 647h73.5996s115.201 -315 211.201 -519c96 204 194.398 519 194.398 519h73.6016s-156 -428.6 -244 -647h-46.4004z" />
    <glyph glyph-name="w" unicode="w" horiz-adv-x="922" vert-adv-y="0" 
d="M433.504 354.003l66.8906 0.739258s67.5166 -156.429 100.605 -226.742c96 204 194.399 520 194.399 520h73.6006s-156 -429.6 -244 -648h-46.4004c-41.6484 94.1104 -66.252 168.29 -112.8 262.4c-38.9902 -99.8408 -72.1992 -183.478 -104 -262.4h-46.4004
l-262.399 648h73.5996s115.2 -316 211.2 -520c32.9805 70.084 66.2441 150.555 95.7041 226.003z" />
    <glyph glyph-name="z" unicode="z" horiz-adv-x="646" vert-adv-y="0" 
d="M101.8 609v48.7998h464l-371.2 -593.8h371.2h32v-32v-32h-32h-517.6l408 609h-354.4z" />
    <glyph glyph-name="y" unicode="y" horiz-adv-x="624" vert-adv-y="0" 
d="M123.6 -504c-17.5996 0 -36.7988 6.40039 -55.1992 12c237.6 585.6 229.6 561.6 223.199 561.6l-256 582h73.5996s115.201 -310 211.201 -514c96 204 194.4 514 194.4 514h73.5996s-210.4 -558 -464.801 -1155.6z" />
    <glyph glyph-name="hyphen" unicode="-" horiz-adv-x="333" vert-adv-y="0" 
d="M68 272h160v-56h-159z" />
    <glyph glyph-name="T" unicode="T" horiz-adv-x="433" vert-adv-y="0" 
d="M378.531 28v-28c-120.634 -7.0918 -229.56 15.3965 -231.2 104c-3.2002 172.8 -2.61523 454.246 -2.61523 624h-90.2471l0.000976562 53.5996h88v125.601h72.8008v-125.601h81.5996l-0.00195313 -53.5996h-81.5996l-3.9375 -641.6
c10.0205 -65.4922 140.275 -68.8965 167.2 -58.4004z" />
    <glyph glyph-name="zero" unicode="0" vert-adv-y="0" 
d="M275.775 52.7998c85.5996 0 170.406 12.7998 170.406 59.2002c0 66.4004 -2.55664 455.2 -2.55664 564.8c0 59.2002 -82.4062 94.4004 -165.605 94.4004s-171.045 -32.7998 -171.045 -92c0 -109.601 0.955078 -498.4 0.955078 -564.8
c0 -46.4004 82.2461 -61.6006 167.846 -61.6006zM277.375 0c-125.6 0 -231.045 31.2002 -231.045 105.6c0 60 -0.955078 471.2 -0.955078 582.4c0 120.8 122.244 133.6 232.645 133.6s233.605 -15.1992 233.605 -136c0 -111.199 -2.24414 -522.399 -2.24414 -582.399
c0 -74.4004 -105.605 -103.2 -232.006 -103.2z" />
    <glyph glyph-name="one" unicode="1" vert-adv-y="0" 
d="M242.5 812.8h72v-809.6h-72v809.6z" />
    <glyph glyph-name="two" unicode="2" vert-adv-y="0" 
d="M110.101 732l-14.4004 28.7998l28.7998 13.6006c282.4 140 453.601 -61.6006 273.601 -332.801c0 0 -249.601 -403.199 -242.4 -388.8l316.8 4.7998h32v-23.1992v-34.4004h-32h-420l208.8 348s165.602 257.6 154.4 323.2
c-1.83398 10.7432 -6.40039 70.3994 -89.5996 83.2002c-51.4004 7.90723 -123.902 -12.7334 -172.801 -36.8008c-0.799805 0 -0.799805 -0.799805 0 0l-28.7998 -14.3994z" />
    <glyph glyph-name="three" unicode="3" vert-adv-y="0" 
d="M269.987 513.6l139.2 236.094l-324.721 0.480469h-22.7207l-0.046875 38.5469v24.0791h22.7197c278.32 1.12012 430.368 -1.59961 430.368 -1.59961l-180.8 -302.4c299.2 -259.2 136.8 -583.045 -262.975 -493.426l-28.7998 13.6006l16.7998 62.3994l28.7998 -14.3994
c-0.799805 0.799805 -0.799805 0 0 0c48.8984 -24.0674 130.383 -28.7285 182.175 -24.0195c167.2 15.1992 215.241 254.245 0 460.645z" />
    <glyph glyph-name="four" unicode="4" vert-adv-y="0" 
d="M422.5 204c-270.48 -1.10352 -350.4 -4.7998 -350.4 -4.7998l410.4 669.6l2.40039 -859.199h-58.4004zM422.5 260.8c0 119.2 4 387.2 4 387.2s0 6.40039 -241.6 -387.2h237.6z" />
    <glyph glyph-name="five" unicode="5" vert-adv-y="0" 
d="M58.9258 51.3652c-1.71777 1.58789 40.2861 47.834 40.2861 47.834s28.5137 -45.042 114.113 -45.042c85.6006 0 220.466 4.24316 220.466 50.6426c0 66.4004 -3.66504 124 -3.66504 233.601c0 59.1992 -63.7129 81.5996 -216.801 90.3994h-120v57.6006v331.773
s99.2275 0.546875 377.548 -0.574219h16.8525v-24.0791v-38.5459h-16.9004l-310.3 4.09375l-4.52051 -272.668h108.521c110.4 0 233.601 -18.4004 233.601 -139.2c0 -111.2 -1.13477 -191.2 -1.13477 -251.2c0 -74.4004 -157.266 -91.2002 -283.666 -91.2002
c-98.1387 10.2256 -124.8 19.2002 -154.399 46.5654z" />
    <glyph glyph-name="six" unicode="6" vert-adv-y="0" 
d="M510.1 103.2c0 60 0.800781 132.8 0.800781 244c0 120.8 -123.2 136 -233.601 136c-60 0 -124 -3.2002 -169.6 -26.4004v222.4c0 59.2002 86.3994 92 169.6 92c84 0 136.8 -15.2002 164.8 -77.6006l61.6006 41.6006c0 50.3994 -116 86.3994 -226.4 86.3994
c-110.399 0 -231.2 -12.7998 -231.2 -133.6c0 0 0.800781 -555.2 0.800781 -580c0 -74.4004 104.8 -108 230.399 -108c126.4 0 232.8 28.7998 232.8 103.2zM277.3 52.7998c-85.5996 0 -168.8 15.2002 -168.8 61.6006c0 66.3994 -2.40039 121.6 -2.40039 231.199
c0 59.2002 88 87.2002 171.2 87.2002s165.601 -35.2002 165.601 -94.3994c0 -109.601 4 -160 4 -226.4c0 -46.4004 -84 -59.2002 -169.601 -59.2002z" />
    <glyph glyph-name="seven" unicode="7" vert-adv-y="0" 
d="M152.1 0l-79.1992 20.7998l384 732h-432.801h-32v31.2002v34.4004h32h540.801z" />
    <glyph glyph-name="eight" unicode="8" vert-adv-y="0" 
d="M283.928 521c-85.5996 0 -142 10 -142 56c0 66 0 0 4 112c3 59 53 90 136 90s132.4 -30.7998 132.4 -90c0 -109.6 -2.40039 -45.5996 -2.40039 -112c0 -46.3994 -42.4004 -56 -128 -56zM281.928 497c126 0 201 6 201 80c0 60 -1 1 -1 112c0 121 -90 140 -200 140
s-192 -21 -197 -140c-5 -111 -4 -52 -4 -112c0 -74 75 -80 201 -80zM279.928 24c-86 0 -170 12 -170 58c0 67 -3 213 -3 323c0 59 92 92 175 92s162 -36 162 -95c0 -109 4 -256 4 -322c0 -46 -82 -56 -168 -56zM279.928 -32c126.4 0 231.361 28.7998 231.361 103.2
c0 60 0.335938 228.6 0.335938 339.8c0 120.8 -115.297 130 -225.697 130s-240.553 -6.7998 -240.553 -127.6c0 -111.2 2.86328 -279.801 2.86328 -339.801c0 -74.3994 106.09 -105.6 231.689 -105.6z" />
    <glyph glyph-name="nine" unicode="9" vert-adv-y="0" 
d="M46.9004 712.124c0 -60 -0.800781 -132.8 -0.800781 -244c0 -120.8 123.199 -136 233.6 -136c60 0 124 3.2002 169.6 26.4004v-222.4c0 -59.2002 -86.3984 -92 -169.6 -92c-84 0 -136.799 15.2002 -164.799 77.6006l-61.6016 -41.6006
c0 -50.3994 116 -86.3994 226.4 -86.3994s231.201 12.7998 231.201 133.6c0 0 -0.800781 555.2 -0.800781 580c0 74.4004 -104.801 108 -230.4 108c-126.4 0 -232.799 -28.7998 -232.799 -103.2zM279.699 762.524c85.5996 0 168.801 -15.2002 168.801 -61.6006
c0 -66.3994 2.40039 -121.6 2.40039 -231.199c0 -59.2002 -88 -87.2002 -171.201 -87.2002c-83.1992 0 -165.6 35.2002 -165.6 94.3994c0 109.601 -4 160 -4 226.4c0 46.4004 84 59.2002 169.6 59.2002z" />
    <glyph glyph-name="comma" unicode="," horiz-adv-x="195" vert-adv-y="0" 
d="M61 68h77v-56l-77 -81v137z" />
    <glyph glyph-name="period" unicode="." horiz-adv-x="204" vert-adv-y="0" 
d="M57 66.8018l78 1.19824v-68h-78v66.8018z" />
    <glyph glyph-name="colon" unicode=":" horiz-adv-x="138" vert-adv-y="0" 
d="M43.2002 181.441l62.3994 0.958984v-54.4004h-62.3994v53.4414zM43.2002 437.441l62.3994 0.958984v-54.4004h-62.3994v53.4414z" />
    <glyph glyph-name="semicolon" unicode=";" horiz-adv-x="122" vert-adv-y="0" 
d="M33.5996 186.4h62.3994v-44.8008l-62.3994 -64.7998v109.601zM33.5996 437.441l62.3994 0.958984v-54.4004h-62.3994v53.4414z" />
    <glyph glyph-name="plus" unicode="+" horiz-adv-x="333" vert-adv-y="0" 
d="M68 272h198v-56h-197zM140 146v198h56v-197z" />
    <glyph glyph-name="A" unicode="A" horiz-adv-x="609" vert-adv-y="0" 
d="M490.9 644.6c0 20 -0.800781 40 -0.800781 60h68.8008v-704.6h-69.5996v28.7998s-92.8008 -28.7998 -194.4 -28.7998c0 0 -244.801 3.2002 -244.801 99.2002v436.6c0 108 131.201 120 245.6 120c64 0 195.201 -11.2002 195.201 -11.2002zM124.5 535.8
c0 -124 -0.800781 -396.6 -0.800781 -436.6c0 -36.7998 74.4004 -49.6006 171.201 -49.6006c85.5996 0 196.799 3.2002 196.799 49.6006c0 66.3994 -1.59961 327 -1.59961 436.6c0 59.2002 -111.199 76 -194.4 76c-94.3984 0 -166.398 -37.5996 -171.199 -76z" />
    <glyph glyph-name="B" unicode="B" horiz-adv-x="635" vert-adv-y="0" 
d="M58.6992 103.2v431.2v601.6h84v-495.2s108.801 21.6006 168 21.6006c110.4 0 265.602 -5.60059 265.602 -126.4c0 -111.2 -1.60156 -367.2 -1.60156 -427.2c0 -74.3994 -121.6 -106.399 -247.199 -106.399c-66.4004 0 -186.4 15.1992 -186.4 15.1992v-17.5996h-82.4004
v103.2zM141.9 108.8c0 -36.7998 91.1992 -57.5996 188 -57.5996c85.5996 0 174.4 34.3994 174.4 80.7998c0 66.4004 2.39844 294.4 2.39844 404c0 59.2002 -111.199 68.7998 -194.398 68.7998c-97.6016 0 -170.4 -28 -170.4 -68.7998v-427.2z" />
    <glyph glyph-name="C" unicode="C" horiz-adv-x="577" vert-adv-y="0" 
d="M546.08 534.4v-0.800781c0 120.801 -155.201 127.2 -265.6 127.2c-116 0 -249.602 -12.7998 -249.602 -126.399v-432c0 -96 153.277 -103.255 284.475 -102.4c152.783 0.995117 230.768 71.3965 230.768 147.2c0 1.3252 -46.3887 -0.245117 -70.4414 0.799805
c0 -46.4004 -90.4004 -98.4004 -176 -98.4004c-96.8008 0 -189.6 20.8008 -189.6 57.6006c0 53.5996 0.798828 324 0.798828 427.2c0 40.7998 73.6016 68.7998 171.201 68.7998c83.1992 0 194.4 -9.60059 194.4 -68.7998h69.5996z" />
    <glyph glyph-name="D" unicode="D" horiz-adv-x="623" vert-adv-y="0" 
d="M570.3 115.2v431.2v601.6h-84v-495.2s-108.8 21.6006 -168 21.6006c-110.4 0 -265.6 -5.60059 -265.6 -126.4c0 -111.2 1.59961 -367.2 1.59961 -427.2c0 -74.3994 121.6 -106.399 247.2 -106.399c66.3994 0 186.399 15.1992 186.399 15.1992v-17.5996h82.4004v103.2z
M487.1 120.8c0 -36.7998 -91.2002 -57.5996 -188 -57.5996c-85.5996 0 -174.399 34.3994 -174.399 80.7998c0 66.4004 -2.40039 294.4 -2.40039 404c0 59.2002 111.2 68.7998 194.4 68.7998c97.5996 0 170.399 -28 170.399 -68.7998v-427.2z" />
    <glyph glyph-name="E" unicode="E" horiz-adv-x="604" vert-adv-y="0" 
d="M43.0508 424.6c0 113.601 39.8838 190.906 132.001 212c41.1436 9.42188 142.236 27.2002 193.6 27.2002c79.4678 0 147.434 -18.3174 171.2 -65.5996c24.7998 -49.3389 17.7812 -66.0898 17.7812 -144c0 -10.3887 0.185547 -49.3184 0.185547 -60.7998
c-139.2 0 -443.567 -4.80078 -443.567 -4.80078c0 -61.5996 -3.2002 -153.399 -3.2002 -231c0 -92.8594 96.7285 -104 193.601 -104c40.8311 0 100.786 6.03809 142.399 12.8008c51.2002 8.32031 53.9199 98.4316 53.9199 130.304
c0 7.96777 -0.319336 12.8955 -0.319336 12.8955c-0.75293 -0.1875 -1.72559 -0.287109 -1.72559 -0.329102c0 -0.0185547 0.170898 -0.0263672 0.598633 -0.0263672c2.9043 0 7.25977 1.15625 61.127 1.15625c0 -20.3301 0.297852 -40.0615 0.297852 -57.7881
c0 -32.499 -1.00391 -58.2588 -6.69824 -68.6123c-20 -35.2002 -52 -80 -267.2 -80c-96 0 -243.199 35.2002 -243.199 134.4c0 145.6 -0.800781 286.199 -0.800781 286.199zM461.451 446.2c0 0.799805 21.6582 3.2002 21.6582 4c0 108.8 20.7422 164.958 -88.8584 164.958
c-75.5869 0 -180.232 -16.8652 -238.399 -65.3604c-31.1006 -25.9287 -43.2002 -69.5225 -43.2002 -105.198c85.5996 0 348.8 1.60059 348.8 1.60059z" />
    <glyph glyph-name="F" unicode="F" horiz-adv-x="369" vert-adv-y="0" 
d="M107.796 783.2c0 77.5703 1.04395 249.93 4 315.2c2.0791 45.9248 52.5322 92.4619 137.279 99.5244c38.4004 3.2002 94.7207 -1.9248 94.7207 -1.9248s-3.08496 -31.7168 0 -27.2002c0 0 -2.16309 -1.79395 -71.2002 -2.39941
c-91.2002 -0.800781 -84 -42.4004 -84 -123.2c0 -110.4 3.00879 -240.8 2.40039 -260.8h76.7998l-0.191406 -54.4004h-81.6006l1.18359 -723.2h-78.4004l-1.18262 723.2h-82.4004l0.191406 54.4004z" />
    <glyph glyph-name="G" unicode="G" horiz-adv-x="532" vert-adv-y="0" 
d="M306.756 -514.4c96 0 164.8 5.60059 164.8 104.801c0 347.199 4.7998 943.199 4.7998 943.199s0.799805 81.6006 0.799805 130.4h-72c0 -7.2002 0 -32 0 -30.4004c-55.2002 24 -86.3994 34.4004 -148.8 34.4004c-116 0 -200.8 -19.2002 -200.8 -132.8v-432
c0 -96 200.8 -97.6006 200.8 -97.6006c101.6 0 148.8 22.4004 148.8 22.4004v-405.6c0 -63.2002 0 -72.8008 -28.7998 -79.2002c-95.2002 -20 -320.8 -24 -320.8 -24s-1.60059 -16.7998 0 -27.2002zM405.155 533.6v-404c0 -46.3994 -63.2002 -72.7998 -148.8 -72.7998
c-96.7998 0 -125.6 14.4004 -125.6 51.2002v427.2c0 40.7998 28 75.2002 125.6 75.2002c83.2002 0 148.8 -17.6006 148.8 -76.8008z" />
    <glyph glyph-name="H" unicode="H" horiz-adv-x="593" vert-adv-y="0" 
d="M478.5 -1.59961h70.4004c6.39941 11.1992 3.2002 318.399 3.2002 549.6c0 61.5996 -52 86.4004 -120.801 86.4004c-131.199 0 -328.8 -77.6006 -328.8 -77.6006v577.601h-62.3994v-1133.6h69.5996s2.40039 281.601 2.40039 457.601
c0 88.7998 140 139.199 246.399 139.199c65.6006 0 119.2 5.60059 119.2 -49.5996c0 -216 0.799805 -557.6 0.799805 -549.6z" />
    <glyph glyph-name="I" unicode="I" horiz-adv-x="202" vert-adv-y="0" 
d="M57 805c0 24 20 44 44 44s44 -20 44 -44s-20 -44 -44 -44s-44 20 -44 44zM137.234 0h-79.2002v657h79.2002v-657z" />
    <glyph glyph-name="J" unicode="J" horiz-adv-x="298" vert-adv-y="0" 
d="M28.957 -518.975c12.9805 -0.44043 26.9023 -0.669922 41.834 -0.669922c96 0 187.852 12.4443 187.852 111.645v546.4v509.6s0 -32.8008 0 16h-73.0488l0.798828 -990.4c0.0262471 -32.5416 0.882812 -119.469 -16.6348 -140.8
c-32.5059 -39.5791 -140.801 -24.457 -140.801 -24.457v-27.3174zM181.043 829.6c0 24 20 44 44 44s44 -20 44 -44s-20 -44 -44 -44s-44 20 -44 44zM28.957 -518.975z" />
    <glyph glyph-name="K" unicode="K" horiz-adv-x="601" vert-adv-y="0" 
d="M320.354 663.2l-206.453 -173.2v648.8h-68.8008c0 -272.8 2 -979.2 2 -1136.8h70.4004s-0.400391 254.4 -0.400391 426.4c123.2 -179.2 374 -431.2 368.4 -426.4h70.4004c-4.80078 12 -378 456 -378 456l193.653 154z" />
    <glyph glyph-name="L" unicode="L" horiz-adv-x="236" vert-adv-y="0" 
d="M158.801 0l-74.4004 -0.799805l-7.20117 1130.4h80z" />
    <glyph glyph-name="M" unicode="M" horiz-adv-x="1050" vert-adv-y="0" 
d="M532.201 602.4c0 0 220.799 53.5996 351.999 53.5996c68.7998 0 120.8 -24.7998 120.8 -86.4004c0 -231.199 3.2002 -558.399 -3.2002 -569.6h-70.3994c0 -8 -0.800781 353.6 -0.800781 569.6c0 55.2002 -53.5996 49.6006 -119.199 49.6006
c-106.4 0 -252 -12 -255.118 -120c-6.30859 -218.526 2.48535 -489.107 -3.28223 -499.2h-70.4004c0 -8 -0.799805 353.6 -0.799805 569.6c0 55.2002 -53.5996 49.6006 -119.2 49.6006c-106.399 0 -246.399 -50.4004 -246.399 -139.2
c0 -176 -2.40039 -477.6 -2.40039 -477.6h-69.5996c0 157.6 3.2002 380.8 3.2002 653.6h68.7998v-6.40039c0 -19.1992 -0.799805 -67.1992 -0.799805 -67.1992s188.8 73.5996 320 73.5996c54.4648 0 80.8555 -16.5625 96.8008 -53.5996z" />
    <glyph glyph-name="N" unicode="N" horiz-adv-x="607" vert-adv-y="0" 
d="M485.5 -0.799805h70.3994c6.40039 11.2002 3.2002 338.399 3.2002 569.6c0 61.6006 -52 86.4004 -120.8 86.4004c-131.2 0 -320 -73.6006 -320 -73.6006s0.799805 48 0.799805 67.2002v6.40039h-68.7998c0 -272.8 -3.2002 -496 -3.2002 -653.601h69.6006
s2.39941 301.601 2.39941 477.601c0 88.7998 140 139.2 246.4 139.2c65.5996 0 119.2 5.59961 119.2 -49.6006c0 -216 0.799805 -577.6 0.799805 -569.6z" />
    <glyph glyph-name="O" unicode="O" horiz-adv-x="572" vert-adv-y="0" 
d="M282.4 52c85.5996 0 184.8 16 184.8 62.4004c0 66.3994 -3.2002 293.6 -3.2002 403.199c0 59.2002 -96.7998 91.2002 -180 91.2002c-83.1992 0 -182.399 -32 -182.399 -91.2002c0 -109.6 1.59961 -336.8 1.59961 -403.199c0 -46.4004 93.6006 -62.4004 179.2 -62.4004z
M284 -0.799805c-125.6 0 -242.399 32 -242.399 106.399c0 60 -1.60059 309.601 -1.60059 420.801c0 120.8 133.601 132.8 244 132.8c110.4 0 248 -12 248 -132.8c0 -111.2 -1.59961 -360.801 -1.59961 -420.801c0 -74.3994 -120 -106.399 -246.4 -106.399z" />
    <glyph glyph-name="P" unicode="P" horiz-adv-x="619" vert-adv-y="0" 
d="M50.6992 559.2v-431.2v-601.6h84v495.199s108.801 -21.5996 168 -21.5996c110.4 0 265.602 5.59961 265.602 126.4c0 111.199 -1.60156 367.199 -1.60156 427.199c0 74.4004 -121.6 106.4 -247.199 106.4c-66.4004 0 -186.4 -15.2002 -186.4 -15.2002v17.6006h-82.4004
v-103.2zM133.9 553.6c0 36.8008 91.1992 57.6006 188 57.6006c85.5996 0 174.4 -34.4004 174.4 -80.7998c0 -66.4004 2.39844 -294.4 2.39844 -404c0 -59.2002 -111.199 -68.8008 -194.398 -68.8008c-97.6016 0 -170.4 28 -170.4 68.8008v427.199z" />
    <glyph glyph-name="Q" unicode="Q" horiz-adv-x="616" vert-adv-y="0" 
d="M566.8 555.2l4.99995e-10 -439.2v-601.6h-84v495.199s-108.8 -21.5996 -168 -21.5996c-110.399 0 -265.6 5.59961 -265.6 126.4c0 111.199 1.59961 375.199 1.59961 435.199c0 74.4004 121.601 106.4 247.2 106.4c66.4004 0 186.4 -15.2002 186.4 -15.2002v17.6006
h82.3994v-103.2zM483.601 549.6c0 36.8008 -91.2002 57.6006 -188 57.6006c-85.6006 0 -174.4 -34.4004 -174.4 -80.7998c0 -66.4004 -2.40039 -302.4 -2.40039 -412c0 -59.2002 111.2 -68.8008 194.4 -68.8008c97.5996 0 170.4 28 170.4 68.8008z" />
    <glyph glyph-name="R" unicode="R" horiz-adv-x="569" vert-adv-y="0" 
d="M540.5 556.8c0 61.6006 -52 86.4004 -120.8 86.4004c-131.2 0 -320 -73.6006 -320 -73.6006s0.799805 48 0.799805 67.2002v6.40039h-68.7998c0 -272.8 -3.2002 -476 -3.2002 -633.601h69.5996s2.40039 281.601 2.40039 457.601c0 88.7998 204.8 137.6 311.2 137.6
c65.5996 0 54.3994 -48 54.3994 -48h74.4004z" />
    <glyph glyph-name="S" unicode="S" horiz-adv-x="602" vert-adv-y="0" 
d="M558.5 191.2v-63.2002c0 -89.5996 -92.7998 -116 -230.399 -116c-72 0 -118.4 3.2002 -293.601 81.5996l12 24l13.6006 33.6006c155.2 -68.7998 191.2 -72 268 -72c96.7998 0 145.6 5.59961 157.6 48.7998c0 0 2.40039 43.2002 2.40039 55.2002
c0 140.8 -120.558 178.224 -284 241.6c-39.2002 15.2002 -77.6768 17.6006 -77.6768 52.7998c0 32 -4 101.601 36.7998 124.801c119.2 68 218.477 89.5996 376.877 -25.6006c0 0 -30.4004 -44.7998 -36.7998 -33.5996c-320.801 200.8 -328.801 -36 -278.4 -56
c260.8 -101.601 333.6 -136 333.6 -296z" />
    <glyph glyph-name="U" unicode="U" horiz-adv-x="575" vert-adv-y="0" 
d="M107.1 646.2h-73.5996s-1.59961 -334.2 -1.59961 -564.601c0 -61.5996 52 -81.5996 120.801 -81.5996c131.199 0 320 73.5996 320 73.5996s-0.800781 -48 -0.800781 -67.1992v-6.40039h68.8008c0 272.8 2.39844 495 2.39844 652.6h-68.7988
s-2.40039 -300.6 -2.40039 -476.6c0 -88.7998 -140 -139.2 -246.4 -139.2c-65.5996 0 -119.199 -5.59961 -119.199 49.6006c0 216 0.798828 559.8 0.798828 559.8z" />
    <glyph glyph-name="V" unicode="V" horiz-adv-x="635" vert-adv-y="0" 
d="M303.5 0l-262.4 647h73.5996s115.201 -315 211.201 -519c96 204 194.398 519 194.398 519h73.6016s-156 -428.6 -244 -647h-46.4004z" />
    <glyph glyph-name="W" unicode="W" horiz-adv-x="922" vert-adv-y="0" 
d="M433.504 354.003l66.8906 0.739258s67.5166 -156.429 100.605 -226.742c96 204 194.399 520 194.399 520h73.6006s-156 -429.6 -244 -648h-46.4004c-41.6484 94.1104 -66.252 168.29 -112.8 262.4c-38.9902 -99.8408 -72.1992 -183.478 -104 -262.4h-46.4004
l-262.399 648h73.5996s115.2 -316 211.2 -520c32.9805 70.084 66.2441 150.555 95.7041 226.003z" />
    <glyph glyph-name="X" unicode="X" horiz-adv-x="533" vert-adv-y="0" 
d="M116.9 2.40039h-74.4004c32.8008 64.7998 128 240 188 381.6l-124.8 265.8h76.7998l88 -187.399l92.8008 187.399h76.7998c-63.2002 -118.399 -61.6006 -128.2 -128 -262.6l178.399 -384.8h-71.1992l-147.2 316s-155.2 -313.601 -155.2 -316z" />
    <glyph glyph-name="Y" unicode="Y" horiz-adv-x="624" vert-adv-y="0" 
d="M123.6 -504c-17.5996 0 -36.7988 6.40039 -55.1992 12c237.6 585.6 229.6 561.6 223.199 561.6l-256 582h73.5996s115.201 -310 211.201 -514c96 204 194.4 514 194.4 514h73.5996s-210.4 -558 -464.801 -1155.6z" />
    <glyph glyph-name="Z" unicode="Z" horiz-adv-x="646" vert-adv-y="0" 
d="M101.8 609v48.7998h464l-371.2 -593.8h371.2h32v-32v-32h-32h-517.6l408 609h-354.4z" />
  </font>
</defs>
</svg>
